<mxfile host="app.diagrams.net" modified="2024-06-04T08:14:48.828Z" agent="Mozilla/5.0 (Windows NT 10.0; Win64; x64) AppleWebKit/537.36 (KHTML, like Gecko) Chrome/125.0.0.0 Safari/537.36" etag="SkCffYcPYvRgC_U9_D33" version="24.4.13" type="device">
  <diagram id="4hGNNaWelnX5ogM7S-4X" name="Page-1">
    <mxGraphModel dx="3800" dy="1044" grid="1" gridSize="10" guides="1" tooltips="1" connect="1" arrows="1" fold="1" page="1" pageScale="1" pageWidth="850" pageHeight="1100" math="0" shadow="0">
      <root>
        <mxCell id="0" />
        <mxCell id="1" parent="0" />
        <mxCell id="w5TSv6t7b7msW4aALVIM-109" value="" style="group" vertex="1" connectable="0" parent="1">
          <mxGeometry x="-900" y="40" width="530" height="1300" as="geometry" />
        </mxCell>
        <mxCell id="w5TSv6t7b7msW4aALVIM-106" value="" style="rounded=1;whiteSpace=wrap;html=1;" vertex="1" parent="w5TSv6t7b7msW4aALVIM-109">
          <mxGeometry width="530" height="1300" as="geometry" />
        </mxCell>
        <mxCell id="w5TSv6t7b7msW4aALVIM-107" value="&lt;font style=&quot;font-size: 18px;&quot;&gt;INTERFACE&lt;/font&gt;" style="text;html=1;align=center;verticalAlign=middle;whiteSpace=wrap;rounded=0;" vertex="1" parent="w5TSv6t7b7msW4aALVIM-109">
          <mxGeometry x="54.55882352941176" y="30.232558139534884" width="46.76470588235294" height="30.232558139534884" as="geometry" />
        </mxCell>
        <mxCell id="w5TSv6t7b7msW4aALVIM-77" value="" style="rounded=1;whiteSpace=wrap;html=1;fontSize=15;" vertex="1" parent="1">
          <mxGeometry x="-210" y="30" width="1240" height="370" as="geometry" />
        </mxCell>
        <mxCell id="w5TSv6t7b7msW4aALVIM-73" value="" style="group;fontSize=15;" vertex="1" connectable="0" parent="1">
          <mxGeometry x="-290" y="430" width="1540" height="570" as="geometry" />
        </mxCell>
        <mxCell id="w5TSv6t7b7msW4aALVIM-63" value="" style="rounded=1;whiteSpace=wrap;html=1;fontSize=15;" vertex="1" parent="w5TSv6t7b7msW4aALVIM-73">
          <mxGeometry width="1540" height="570" as="geometry" />
        </mxCell>
        <mxCell id="w5TSv6t7b7msW4aALVIM-64" value="&lt;font style=&quot;font-size: 15px;&quot;&gt;ACCOUNT&lt;/font&gt;" style="text;html=1;align=center;verticalAlign=middle;whiteSpace=wrap;rounded=0;fontSize=15;" vertex="1" parent="w5TSv6t7b7msW4aALVIM-73">
          <mxGeometry x="50" y="31.666666666666668" width="60" height="31.666666666666668" as="geometry" />
        </mxCell>
        <mxCell id="w5TSv6t7b7msW4aALVIM-1" value="&lt;div style=&quot;font-size: 15px;&quot;&gt;&amp;lt;&amp;lt;abstract&amp;gt;&amp;gt;&lt;/div&gt;Account" style="swimlane;fontStyle=1;align=center;verticalAlign=top;childLayout=stackLayout;horizontal=1;startSize=43;horizontalStack=0;resizeParent=1;resizeParentMax=0;resizeLast=0;collapsible=1;marginBottom=0;whiteSpace=wrap;html=1;fontSize=15;" vertex="1" parent="1">
          <mxGeometry x="320" y="507" width="280" height="450" as="geometry" />
        </mxCell>
        <mxCell id="w5TSv6t7b7msW4aALVIM-2" value="- List&amp;lt;Transaction&amp;gt;: _transactions&lt;div style=&quot;font-size: 15px;&quot;&gt;- int: _accountNumber&lt;/div&gt;&lt;div style=&quot;font-size: 15px;&quot;&gt;- int: _balance = 0&lt;/div&gt;" style="text;strokeColor=none;fillColor=none;align=left;verticalAlign=top;spacingLeft=4;spacingRight=4;overflow=hidden;rotatable=0;points=[[0,0.5],[1,0.5]];portConstraint=eastwest;whiteSpace=wrap;html=1;fontSize=15;" vertex="1" parent="w5TSv6t7b7msW4aALVIM-1">
          <mxGeometry y="43" width="280" height="77" as="geometry" />
        </mxCell>
        <mxCell id="w5TSv6t7b7msW4aALVIM-3" value="" style="line;strokeWidth=1;fillColor=none;align=left;verticalAlign=middle;spacingTop=-1;spacingLeft=3;spacingRight=3;rotatable=0;labelPosition=right;points=[];portConstraint=eastwest;strokeColor=inherit;fontSize=15;" vertex="1" parent="w5TSv6t7b7msW4aALVIM-1">
          <mxGeometry y="120" width="280" height="8" as="geometry" />
        </mxCell>
        <mxCell id="w5TSv6t7b7msW4aALVIM-4" value="+ Account (int AccountNum, int Password)&lt;div style=&quot;font-size: 15px;&quot;&gt;&lt;br style=&quot;font-size: 15px;&quot;&gt;&lt;/div&gt;&lt;div style=&quot;font-size: 15px;&quot;&gt;+ AccountNumber: int &amp;lt;&amp;lt;property&amp;gt;&amp;gt;&lt;/div&gt;&lt;div style=&quot;font-size: 15px;&quot;&gt;+ Password : int &amp;lt;&amp;lt;property&amp;gt;&amp;gt;&lt;/div&gt;&lt;div style=&quot;font-size: 15px;&quot;&gt;+ Balance: int&amp;nbsp; &amp;lt;&amp;lt;property&amp;gt;&amp;gt;&lt;/div&gt;&lt;div style=&quot;font-size: 15px;&quot;&gt;+ Transactions: List&amp;lt;Transaction&amp;gt; &amp;lt;&amp;lt;property&amp;gt;&amp;gt;&lt;/div&gt;&lt;div style=&quot;font-size: 15px;&quot;&gt;&lt;br style=&quot;font-size: 15px;&quot;&gt;&lt;/div&gt;&lt;div style=&quot;font-size: 15px;&quot;&gt;+ AddTransaction (Transaction): void&lt;/div&gt;&lt;div style=&quot;font-size: 15px;&quot;&gt;+ Deposit (int): string &amp;lt;&amp;lt;virtual&amp;gt;&amp;gt;&lt;/div&gt;&lt;div style=&quot;font-size: 15px;&quot;&gt;+ Withdraw (int): string &amp;lt;&amp;lt;virtual&amp;gt;&amp;gt;&lt;/div&gt;&lt;div style=&quot;font-size: 15px;&quot;&gt;+ Transfer (int, Account): string&lt;/div&gt;&lt;div style=&quot;font-size: 15px;&quot;&gt;+ TransactionHistory(): string&lt;/div&gt;&lt;div style=&quot;font-size: 15px;&quot;&gt;&lt;br style=&quot;font-size: 15px;&quot;&gt;&lt;/div&gt;&lt;div style=&quot;font-size: 15px;&quot;&gt;+ AreYou (int AccountNum, int Password): Account&lt;/div&gt;&lt;div style=&quot;font-size: 15px;&quot;&gt;&amp;nbsp;&lt;/div&gt;" style="text;strokeColor=none;fillColor=none;align=left;verticalAlign=top;spacingLeft=4;spacingRight=4;overflow=hidden;rotatable=0;points=[[0,0.5],[1,0.5]];portConstraint=eastwest;whiteSpace=wrap;html=1;fontSize=15;" vertex="1" parent="w5TSv6t7b7msW4aALVIM-1">
          <mxGeometry y="128" width="280" height="322" as="geometry" />
        </mxCell>
        <mxCell id="w5TSv6t7b7msW4aALVIM-20" value="" style="group;fontSize=15;" vertex="1" connectable="0" parent="1">
          <mxGeometry x="730" y="130" width="140" height="161.5" as="geometry" />
        </mxCell>
        <mxCell id="w5TSv6t7b7msW4aALVIM-16" value="&lt;div style=&quot;font-size: 15px;&quot;&gt;&amp;lt;&amp;lt;enum&amp;gt;&lt;/div&gt;TransactionType" style="swimlane;fontStyle=1;align=center;verticalAlign=middle;childLayout=stackLayout;horizontal=1;startSize=52;horizontalStack=0;resizeParent=1;resizeParentMax=0;resizeLast=0;collapsible=0;marginBottom=0;html=1;whiteSpace=wrap;fontSize=15;" vertex="1" parent="w5TSv6t7b7msW4aALVIM-20">
          <mxGeometry width="140" height="161.5" as="geometry" />
        </mxCell>
        <mxCell id="w5TSv6t7b7msW4aALVIM-19" value="&lt;font style=&quot;font-size: 15px;&quot;&gt;Deposit&lt;/font&gt;&lt;div style=&quot;font-size: 15px;&quot;&gt;&lt;font style=&quot;font-size: 15px;&quot;&gt;Withdraw&lt;/font&gt;&lt;/div&gt;&lt;div style=&quot;font-size: 15px;&quot;&gt;&lt;font style=&quot;font-size: 15px;&quot;&gt;Transfer&lt;/font&gt;&lt;/div&gt;" style="text;html=1;align=center;verticalAlign=middle;resizable=0;points=[];autosize=1;strokeColor=none;fillColor=none;fontSize=15;" vertex="1" parent="w5TSv6t7b7msW4aALVIM-20">
          <mxGeometry x="15" y="49.5" width="90" height="70" as="geometry" />
        </mxCell>
        <mxCell id="w5TSv6t7b7msW4aALVIM-29" value="Transaction&lt;div style=&quot;font-size: 15px;&quot;&gt;&lt;/div&gt;" style="swimlane;fontStyle=1;align=center;verticalAlign=top;childLayout=stackLayout;horizontal=1;startSize=43;horizontalStack=0;resizeParent=1;resizeParentMax=0;resizeLast=0;collapsible=1;marginBottom=0;whiteSpace=wrap;html=1;fontSize=15;" vertex="1" parent="1">
          <mxGeometry x="320" y="130" width="280" height="230" as="geometry" />
        </mxCell>
        <mxCell id="w5TSv6t7b7msW4aALVIM-30" value="- TransactionType: Type&lt;div style=&quot;font-size: 15px;&quot;&gt;- Int: Amount&lt;/div&gt;&lt;div style=&quot;font-size: 15px;&quot;&gt;- DateTime: Date&lt;/div&gt;" style="text;strokeColor=none;fillColor=none;align=left;verticalAlign=top;spacingLeft=4;spacingRight=4;overflow=hidden;rotatable=0;points=[[0,0.5],[1,0.5]];portConstraint=eastwest;whiteSpace=wrap;html=1;fontSize=15;" vertex="1" parent="w5TSv6t7b7msW4aALVIM-29">
          <mxGeometry y="43" width="280" height="77" as="geometry" />
        </mxCell>
        <mxCell id="w5TSv6t7b7msW4aALVIM-31" value="" style="line;strokeWidth=1;fillColor=none;align=left;verticalAlign=middle;spacingTop=-1;spacingLeft=3;spacingRight=3;rotatable=0;labelPosition=right;points=[];portConstraint=eastwest;strokeColor=inherit;fontSize=15;" vertex="1" parent="w5TSv6t7b7msW4aALVIM-29">
          <mxGeometry y="120" width="280" height="8" as="geometry" />
        </mxCell>
        <mxCell id="w5TSv6t7b7msW4aALVIM-32" value="+ Transaction (TransactionType, int Amount)&amp;nbsp;&lt;div style=&quot;font-size: 15px;&quot;&gt;&lt;br style=&quot;font-size: 15px;&quot;&gt;&lt;/div&gt;&lt;div style=&quot;font-size: 15px;&quot;&gt;+ Print(): string &amp;lt;&amp;lt;virtual&amp;gt;&amp;gt;&lt;/div&gt;" style="text;strokeColor=none;fillColor=none;align=left;verticalAlign=top;spacingLeft=4;spacingRight=4;overflow=hidden;rotatable=0;points=[[0,0.5],[1,0.5]];portConstraint=eastwest;whiteSpace=wrap;html=1;fontSize=15;" vertex="1" parent="w5TSv6t7b7msW4aALVIM-29">
          <mxGeometry y="128" width="280" height="102" as="geometry" />
        </mxCell>
        <mxCell id="w5TSv6t7b7msW4aALVIM-33" style="edgeStyle=orthogonalEdgeStyle;rounded=0;orthogonalLoop=1;jettySize=auto;html=1;exitX=0.5;exitY=0;exitDx=0;exitDy=0;entryX=0.316;entryY=1.008;entryDx=0;entryDy=0;entryPerimeter=0;fontSize=15;" edge="1" parent="1" source="w5TSv6t7b7msW4aALVIM-1" target="w5TSv6t7b7msW4aALVIM-32">
          <mxGeometry relative="1" as="geometry" />
        </mxCell>
        <mxCell id="w5TSv6t7b7msW4aALVIM-34" value="USE" style="edgeLabel;html=1;align=center;verticalAlign=middle;resizable=0;points=[];fontSize=15;" vertex="1" connectable="0" parent="w5TSv6t7b7msW4aALVIM-33">
          <mxGeometry x="-0.2143" y="2" relative="1" as="geometry">
            <mxPoint as="offset" />
          </mxGeometry>
        </mxCell>
        <mxCell id="w5TSv6t7b7msW4aALVIM-35" style="edgeStyle=orthogonalEdgeStyle;rounded=0;orthogonalLoop=1;jettySize=auto;html=1;exitX=1;exitY=0.5;exitDx=0;exitDy=0;entryX=0;entryY=0.5;entryDx=0;entryDy=0;fontSize=15;" edge="1" parent="1" source="w5TSv6t7b7msW4aALVIM-30" target="w5TSv6t7b7msW4aALVIM-16">
          <mxGeometry relative="1" as="geometry" />
        </mxCell>
        <mxCell id="w5TSv6t7b7msW4aALVIM-36" value="USE" style="edgeLabel;html=1;align=center;verticalAlign=middle;resizable=0;points=[];fontSize=15;" vertex="1" connectable="0" parent="w5TSv6t7b7msW4aALVIM-35">
          <mxGeometry x="0.0863" y="-3" relative="1" as="geometry">
            <mxPoint as="offset" />
          </mxGeometry>
        </mxCell>
        <mxCell id="w5TSv6t7b7msW4aALVIM-37" value="SavingAccount" style="swimlane;fontStyle=1;align=center;verticalAlign=top;childLayout=stackLayout;horizontal=1;startSize=43;horizontalStack=0;resizeParent=1;resizeParentMax=0;resizeLast=0;collapsible=1;marginBottom=0;whiteSpace=wrap;html=1;fontSize=15;" vertex="1" parent="1">
          <mxGeometry x="750" y="507" width="280" height="230" as="geometry" />
        </mxCell>
        <mxCell id="w5TSv6t7b7msW4aALVIM-38" value="&amp;nbsp;- Int: InterestRate" style="text;strokeColor=none;fillColor=none;align=left;verticalAlign=top;spacingLeft=4;spacingRight=4;overflow=hidden;rotatable=0;points=[[0,0.5],[1,0.5]];portConstraint=eastwest;whiteSpace=wrap;html=1;fontSize=15;" vertex="1" parent="w5TSv6t7b7msW4aALVIM-37">
          <mxGeometry y="43" width="280" height="47" as="geometry" />
        </mxCell>
        <mxCell id="w5TSv6t7b7msW4aALVIM-39" value="" style="line;strokeWidth=1;fillColor=none;align=left;verticalAlign=middle;spacingTop=-1;spacingLeft=3;spacingRight=3;rotatable=0;labelPosition=right;points=[];portConstraint=eastwest;strokeColor=inherit;fontSize=15;" vertex="1" parent="w5TSv6t7b7msW4aALVIM-37">
          <mxGeometry y="90" width="280" height="8" as="geometry" />
        </mxCell>
        <mxCell id="w5TSv6t7b7msW4aALVIM-40" value="&lt;div style=&quot;font-size: 15px;&quot;&gt;+ SavingAccount (int AccountNum, int Password, int InterestRate)&lt;/div&gt;&lt;div style=&quot;font-size: 15px;&quot;&gt;&lt;br style=&quot;font-size: 15px;&quot;&gt;&lt;/div&gt;+ InterestRate: int &amp;lt;&amp;lt;readonly property&amp;gt;&lt;div style=&quot;font-size: 15px;&quot;&gt;&lt;br style=&quot;font-size: 15px;&quot;&gt;&lt;/div&gt;&lt;div style=&quot;font-size: 15px;&quot;&gt;+&amp;nbsp; Deposit (int): string &amp;lt;&amp;lt;override&amp;gt;&amp;gt;&lt;/div&gt;" style="text;strokeColor=none;fillColor=none;align=left;verticalAlign=top;spacingLeft=4;spacingRight=4;overflow=hidden;rotatable=0;points=[[0,0.5],[1,0.5]];portConstraint=eastwest;whiteSpace=wrap;html=1;fontSize=15;" vertex="1" parent="w5TSv6t7b7msW4aALVIM-37">
          <mxGeometry y="98" width="280" height="132" as="geometry" />
        </mxCell>
        <mxCell id="w5TSv6t7b7msW4aALVIM-41" style="edgeStyle=orthogonalEdgeStyle;rounded=0;orthogonalLoop=1;jettySize=auto;html=1;exitX=1;exitY=0.5;exitDx=0;exitDy=0;entryX=0;entryY=0.5;entryDx=0;entryDy=0;fontSize=15;" edge="1" parent="1" source="w5TSv6t7b7msW4aALVIM-2" target="w5TSv6t7b7msW4aALVIM-37">
          <mxGeometry relative="1" as="geometry" />
        </mxCell>
        <mxCell id="w5TSv6t7b7msW4aALVIM-42" value="INHERITS" style="edgeLabel;html=1;align=center;verticalAlign=middle;resizable=0;points=[];fontSize=15;" vertex="1" connectable="0" parent="w5TSv6t7b7msW4aALVIM-41">
          <mxGeometry x="0.1099" y="-3" relative="1" as="geometry">
            <mxPoint x="-1" as="offset" />
          </mxGeometry>
        </mxCell>
        <mxCell id="w5TSv6t7b7msW4aALVIM-47" value="INHERITS" style="edgeStyle=orthogonalEdgeStyle;rounded=0;orthogonalLoop=1;jettySize=auto;html=1;exitX=1;exitY=0.25;exitDx=0;exitDy=0;fontSize=15;" edge="1" parent="1" target="w5TSv6t7b7msW4aALVIM-2">
          <mxGeometry relative="1" as="geometry">
            <mxPoint x="140" y="569.5" as="sourcePoint" />
          </mxGeometry>
        </mxCell>
        <mxCell id="w5TSv6t7b7msW4aALVIM-52" value="NormalAccount" style="swimlane;fontStyle=1;align=center;verticalAlign=top;childLayout=stackLayout;horizontal=1;startSize=43;horizontalStack=0;resizeParent=1;resizeParentMax=0;resizeLast=0;collapsible=1;marginBottom=0;whiteSpace=wrap;html=1;fontSize=15;" vertex="1" parent="1">
          <mxGeometry x="-140" y="490" width="280" height="160" as="geometry" />
        </mxCell>
        <mxCell id="w5TSv6t7b7msW4aALVIM-53" value="&amp;nbsp;" style="text;strokeColor=none;fillColor=none;align=left;verticalAlign=top;spacingLeft=4;spacingRight=4;overflow=hidden;rotatable=0;points=[[0,0.5],[1,0.5]];portConstraint=eastwest;whiteSpace=wrap;html=1;fontSize=15;" vertex="1" parent="w5TSv6t7b7msW4aALVIM-52">
          <mxGeometry y="43" width="280" height="47" as="geometry" />
        </mxCell>
        <mxCell id="w5TSv6t7b7msW4aALVIM-54" value="" style="line;strokeWidth=1;fillColor=none;align=left;verticalAlign=middle;spacingTop=-1;spacingLeft=3;spacingRight=3;rotatable=0;labelPosition=right;points=[];portConstraint=eastwest;strokeColor=inherit;fontSize=15;" vertex="1" parent="w5TSv6t7b7msW4aALVIM-52">
          <mxGeometry y="90" width="280" height="8" as="geometry" />
        </mxCell>
        <mxCell id="w5TSv6t7b7msW4aALVIM-55" value="+ NomalAccount (int AccountNumber, int Password)" style="text;strokeColor=none;fillColor=none;align=left;verticalAlign=top;spacingLeft=4;spacingRight=4;overflow=hidden;rotatable=0;points=[[0,0.5],[1,0.5]];portConstraint=eastwest;whiteSpace=wrap;html=1;fontSize=15;" vertex="1" parent="w5TSv6t7b7msW4aALVIM-52">
          <mxGeometry y="98" width="280" height="62" as="geometry" />
        </mxCell>
        <mxCell id="w5TSv6t7b7msW4aALVIM-56" value="CheckingAccount" style="swimlane;fontStyle=1;align=center;verticalAlign=top;childLayout=stackLayout;horizontal=1;startSize=43;horizontalStack=0;resizeParent=1;resizeParentMax=0;resizeLast=0;collapsible=1;marginBottom=0;whiteSpace=wrap;html=1;fontSize=15;" vertex="1" parent="1">
          <mxGeometry x="-150" y="710" width="280" height="230" as="geometry" />
        </mxCell>
        <mxCell id="w5TSv6t7b7msW4aALVIM-57" value="- Int: OverdraftLimit" style="text;strokeColor=none;fillColor=none;align=left;verticalAlign=top;spacingLeft=4;spacingRight=4;overflow=hidden;rotatable=0;points=[[0,0.5],[1,0.5]];portConstraint=eastwest;whiteSpace=wrap;html=1;fontSize=15;" vertex="1" parent="w5TSv6t7b7msW4aALVIM-56">
          <mxGeometry y="43" width="280" height="47" as="geometry" />
        </mxCell>
        <mxCell id="w5TSv6t7b7msW4aALVIM-58" value="" style="line;strokeWidth=1;fillColor=none;align=left;verticalAlign=middle;spacingTop=-1;spacingLeft=3;spacingRight=3;rotatable=0;labelPosition=right;points=[];portConstraint=eastwest;strokeColor=inherit;fontSize=15;" vertex="1" parent="w5TSv6t7b7msW4aALVIM-56">
          <mxGeometry y="90" width="280" height="8" as="geometry" />
        </mxCell>
        <mxCell id="w5TSv6t7b7msW4aALVIM-59" value="&lt;div style=&quot;font-size: 15px;&quot;&gt;+ SavingAccount (int AccountNum, int Password, int OverdraftLimit)&lt;/div&gt;&lt;div style=&quot;font-size: 15px;&quot;&gt;&lt;br style=&quot;font-size: 15px;&quot;&gt;&lt;/div&gt;+ Overdraft: int &amp;lt;&amp;lt;readonly property&amp;gt;&lt;div style=&quot;font-size: 15px;&quot;&gt;&lt;br style=&quot;font-size: 15px;&quot;&gt;&lt;/div&gt;&lt;div style=&quot;font-size: 15px;&quot;&gt;+&amp;nbsp; Withdraw (int): string &amp;lt;&amp;lt;override&amp;gt;&amp;gt;&lt;/div&gt;" style="text;strokeColor=none;fillColor=none;align=left;verticalAlign=top;spacingLeft=4;spacingRight=4;overflow=hidden;rotatable=0;points=[[0,0.5],[1,0.5]];portConstraint=eastwest;whiteSpace=wrap;html=1;fontSize=15;" vertex="1" parent="w5TSv6t7b7msW4aALVIM-56">
          <mxGeometry y="98" width="280" height="132" as="geometry" />
        </mxCell>
        <mxCell id="w5TSv6t7b7msW4aALVIM-60" style="edgeStyle=orthogonalEdgeStyle;rounded=0;orthogonalLoop=1;jettySize=auto;html=1;exitX=1;exitY=0.5;exitDx=0;exitDy=0;entryX=0.007;entryY=0.647;entryDx=0;entryDy=0;entryPerimeter=0;fontSize=15;" edge="1" parent="1" source="w5TSv6t7b7msW4aALVIM-57" target="w5TSv6t7b7msW4aALVIM-4">
          <mxGeometry relative="1" as="geometry" />
        </mxCell>
        <mxCell id="w5TSv6t7b7msW4aALVIM-61" value="INHERITS" style="edgeLabel;html=1;align=center;verticalAlign=middle;resizable=0;points=[];fontSize=15;" vertex="1" connectable="0" parent="w5TSv6t7b7msW4aALVIM-60">
          <mxGeometry x="0.2433" y="-1" relative="1" as="geometry">
            <mxPoint x="1" as="offset" />
          </mxGeometry>
        </mxCell>
        <mxCell id="w5TSv6t7b7msW4aALVIM-65" value="TransferTransaction" style="swimlane;fontStyle=1;align=center;verticalAlign=top;childLayout=stackLayout;horizontal=1;startSize=43;horizontalStack=0;resizeParent=1;resizeParentMax=0;resizeLast=0;collapsible=1;marginBottom=0;whiteSpace=wrap;html=1;fontSize=15;" vertex="1" parent="1">
          <mxGeometry x="-70" y="130" width="280" height="230" as="geometry" />
        </mxCell>
        <mxCell id="w5TSv6t7b7msW4aALVIM-66" value="- Account: DestinationAccount" style="text;strokeColor=none;fillColor=none;align=left;verticalAlign=top;spacingLeft=4;spacingRight=4;overflow=hidden;rotatable=0;points=[[0,0.5],[1,0.5]];portConstraint=eastwest;whiteSpace=wrap;html=1;fontSize=15;" vertex="1" parent="w5TSv6t7b7msW4aALVIM-65">
          <mxGeometry y="43" width="280" height="77" as="geometry" />
        </mxCell>
        <mxCell id="w5TSv6t7b7msW4aALVIM-67" value="" style="line;strokeWidth=1;fillColor=none;align=left;verticalAlign=middle;spacingTop=-1;spacingLeft=3;spacingRight=3;rotatable=0;labelPosition=right;points=[];portConstraint=eastwest;strokeColor=inherit;fontSize=15;" vertex="1" parent="w5TSv6t7b7msW4aALVIM-65">
          <mxGeometry y="120" width="280" height="8" as="geometry" />
        </mxCell>
        <mxCell id="w5TSv6t7b7msW4aALVIM-68" value="+ Transaction (TransactionType, int Amount, Account DestinationAccount)&amp;nbsp;&lt;div style=&quot;font-size: 15px;&quot;&gt;&lt;br style=&quot;font-size: 15px;&quot;&gt;&lt;/div&gt;&lt;div style=&quot;font-size: 15px;&quot;&gt;+ Print(): string &amp;lt;&amp;lt;override&amp;gt;&amp;gt;&lt;/div&gt;" style="text;strokeColor=none;fillColor=none;align=left;verticalAlign=top;spacingLeft=4;spacingRight=4;overflow=hidden;rotatable=0;points=[[0,0.5],[1,0.5]];portConstraint=eastwest;whiteSpace=wrap;html=1;fontSize=15;" vertex="1" parent="w5TSv6t7b7msW4aALVIM-65">
          <mxGeometry y="128" width="280" height="102" as="geometry" />
        </mxCell>
        <mxCell id="w5TSv6t7b7msW4aALVIM-69" style="edgeStyle=orthogonalEdgeStyle;rounded=0;orthogonalLoop=1;jettySize=auto;html=1;exitX=1;exitY=0.5;exitDx=0;exitDy=0;entryX=0;entryY=0.5;entryDx=0;entryDy=0;fontSize=15;" edge="1" parent="1" source="w5TSv6t7b7msW4aALVIM-66" target="w5TSv6t7b7msW4aALVIM-30">
          <mxGeometry relative="1" as="geometry" />
        </mxCell>
        <mxCell id="w5TSv6t7b7msW4aALVIM-72" value="INHERITS" style="edgeLabel;html=1;align=center;verticalAlign=middle;resizable=0;points=[];fontSize=15;" vertex="1" connectable="0" parent="w5TSv6t7b7msW4aALVIM-69">
          <mxGeometry x="-0.0478" y="-1" relative="1" as="geometry">
            <mxPoint as="offset" />
          </mxGeometry>
        </mxCell>
        <mxCell id="w5TSv6t7b7msW4aALVIM-78" value="TRANSACTION" style="text;html=1;align=center;verticalAlign=middle;whiteSpace=wrap;rounded=0;fontSize=15;" vertex="1" parent="1">
          <mxGeometry x="-170" y="50" width="60" height="30" as="geometry" />
        </mxCell>
        <mxCell id="w5TSv6t7b7msW4aALVIM-79" value="Bank&lt;div style=&quot;font-size: 15px;&quot;&gt;&lt;/div&gt;" style="swimlane;fontStyle=1;align=center;verticalAlign=top;childLayout=stackLayout;horizontal=1;startSize=43;horizontalStack=0;resizeParent=1;resizeParentMax=0;resizeLast=0;collapsible=1;marginBottom=0;whiteSpace=wrap;html=1;fontSize=15;" vertex="1" parent="1">
          <mxGeometry x="320" y="1120" width="280" height="430" as="geometry" />
        </mxCell>
        <mxCell id="w5TSv6t7b7msW4aALVIM-80" value="- List&amp;lt;Account&amp;gt;: Accounts&lt;div style=&quot;font-size: 15px;&quot;&gt;- List&amp;lt;String&amp;gt;: ids&lt;/div&gt;&lt;div style=&quot;font-size: 15px;&quot;&gt;- String: Name&lt;/div&gt;" style="text;strokeColor=none;fillColor=none;align=left;verticalAlign=top;spacingLeft=4;spacingRight=4;overflow=hidden;rotatable=0;points=[[0,0.5],[1,0.5]];portConstraint=eastwest;whiteSpace=wrap;html=1;fontSize=15;" vertex="1" parent="w5TSv6t7b7msW4aALVIM-79">
          <mxGeometry y="43" width="280" height="77" as="geometry" />
        </mxCell>
        <mxCell id="w5TSv6t7b7msW4aALVIM-81" value="" style="line;strokeWidth=1;fillColor=none;align=left;verticalAlign=middle;spacingTop=-1;spacingLeft=3;spacingRight=3;rotatable=0;labelPosition=right;points=[];portConstraint=eastwest;strokeColor=inherit;fontSize=15;" vertex="1" parent="w5TSv6t7b7msW4aALVIM-79">
          <mxGeometry y="120" width="280" height="8" as="geometry" />
        </mxCell>
        <mxCell id="w5TSv6t7b7msW4aALVIM-82" value="+ Bank (List &amp;lt;string&amp;gt; ids, string name)&lt;div style=&quot;font-size: 15px;&quot;&gt;&lt;br style=&quot;font-size: 15px;&quot;&gt;&lt;/div&gt;&lt;div style=&quot;font-size: 15px;&quot;&gt;+ Id: string &amp;lt;&amp;lt; readonly&amp;gt;&amp;gt;&lt;/div&gt;&lt;div style=&quot;font-size: 15px;&quot;&gt;+ AddID (string): void&lt;/div&gt;&lt;div style=&quot;font-size: 15px;&quot;&gt;+ AreYou (string): bool&lt;/div&gt;&lt;div style=&quot;font-size: 15px;&quot;&gt;&lt;br style=&quot;font-size: 15px;&quot;&gt;&lt;/div&gt;&lt;div style=&quot;font-size: 15px;&quot;&gt;+ Name: string &amp;lt;&amp;lt;readonly&amp;gt;&amp;gt;&lt;/div&gt;&lt;div style=&quot;font-size: 15px;&quot;&gt;+ AddAccount (Account): void&lt;/div&gt;&lt;div style=&quot;font-size: 15px;&quot;&gt;+ DeleteAccount (Account): void&lt;/div&gt;&lt;div style=&quot;font-size: 15px;&quot;&gt;&lt;br style=&quot;font-size: 15px;&quot;&gt;&lt;/div&gt;&lt;div style=&quot;font-size: 15px;&quot;&gt;+ GetAccount(in AccountNum, int Password): Account&lt;/div&gt;&lt;div style=&quot;font-size: 15px;&quot;&gt;&lt;br style=&quot;font-size: 15px;&quot;&gt;&lt;/div&gt;&lt;div style=&quot;font-size: 15px;&quot;&gt;+ GetTransferAccount(Int AccountNumber): Account&lt;/div&gt;&lt;div style=&quot;font-size: 15px;&quot;&gt;&lt;br style=&quot;font-size: 15px;&quot;&gt;&lt;/div&gt;&lt;div style=&quot;font-size: 15px;&quot;&gt;&lt;br style=&quot;font-size: 15px;&quot;&gt;&lt;/div&gt;" style="text;strokeColor=none;fillColor=none;align=left;verticalAlign=top;spacingLeft=4;spacingRight=4;overflow=hidden;rotatable=0;points=[[0,0.5],[1,0.5]];portConstraint=eastwest;whiteSpace=wrap;html=1;fontSize=15;" vertex="1" parent="w5TSv6t7b7msW4aALVIM-79">
          <mxGeometry y="128" width="280" height="302" as="geometry" />
        </mxCell>
        <mxCell id="w5TSv6t7b7msW4aALVIM-83" style="edgeStyle=orthogonalEdgeStyle;rounded=0;orthogonalLoop=1;jettySize=auto;html=1;exitX=0.5;exitY=0;exitDx=0;exitDy=0;entryX=0.487;entryY=1;entryDx=0;entryDy=0;entryPerimeter=0;fontSize=15;" edge="1" parent="1" source="w5TSv6t7b7msW4aALVIM-79" target="w5TSv6t7b7msW4aALVIM-63">
          <mxGeometry relative="1" as="geometry" />
        </mxCell>
        <mxCell id="w5TSv6t7b7msW4aALVIM-84" value="USES" style="edgeLabel;html=1;align=center;verticalAlign=middle;resizable=0;points=[];fontSize=15;" vertex="1" connectable="0" parent="w5TSv6t7b7msW4aALVIM-83">
          <mxGeometry x="-0.4111" y="3" relative="1" as="geometry">
            <mxPoint as="offset" />
          </mxGeometry>
        </mxCell>
        <mxCell id="w5TSv6t7b7msW4aALVIM-87" value="BankSelector&lt;div style=&quot;font-size: 15px;&quot;&gt;&lt;/div&gt;" style="swimlane;fontStyle=1;align=center;verticalAlign=top;childLayout=stackLayout;horizontal=1;startSize=43;horizontalStack=0;resizeParent=1;resizeParentMax=0;resizeLast=0;collapsible=1;marginBottom=0;whiteSpace=wrap;html=1;fontSize=15;" vertex="1" parent="1">
          <mxGeometry x="-770" y="1120" width="280" height="190" as="geometry" />
        </mxCell>
        <mxCell id="w5TSv6t7b7msW4aALVIM-88" value="- List&amp;lt;Bank&amp;gt;: banks&lt;div style=&quot;font-size: 15px;&quot;&gt;&lt;br style=&quot;font-size: 15px;&quot;&gt;&lt;/div&gt;" style="text;strokeColor=none;fillColor=none;align=left;verticalAlign=top;spacingLeft=4;spacingRight=4;overflow=hidden;rotatable=0;points=[[0,0.5],[1,0.5]];portConstraint=eastwest;whiteSpace=wrap;html=1;fontSize=15;" vertex="1" parent="w5TSv6t7b7msW4aALVIM-87">
          <mxGeometry y="43" width="280" height="47" as="geometry" />
        </mxCell>
        <mxCell id="w5TSv6t7b7msW4aALVIM-89" value="" style="line;strokeWidth=1;fillColor=none;align=left;verticalAlign=middle;spacingTop=-1;spacingLeft=3;spacingRight=3;rotatable=0;labelPosition=right;points=[];portConstraint=eastwest;strokeColor=inherit;fontSize=15;" vertex="1" parent="w5TSv6t7b7msW4aALVIM-87">
          <mxGeometry y="90" width="280" height="8" as="geometry" />
        </mxCell>
        <mxCell id="w5TSv6t7b7msW4aALVIM-90" value="+ BankSelector (List&amp;lt;Bank&amp;gt;)&lt;br style=&quot;font-size: 15px;&quot;&gt;&lt;br style=&quot;font-size: 15px;&quot;&gt;+ SelectBank (): Bank&lt;div style=&quot;font-size: 15px;&quot;&gt;+ BankList: string &amp;lt;&amp;lt;readonly&amp;gt;&amp;gt;&lt;br style=&quot;font-size: 15px;&quot;&gt;&lt;div style=&quot;font-size: 15px;&quot;&gt;&lt;br style=&quot;font-size: 15px;&quot;&gt;&lt;/div&gt;&lt;/div&gt;" style="text;strokeColor=none;fillColor=none;align=left;verticalAlign=top;spacingLeft=4;spacingRight=4;overflow=hidden;rotatable=0;points=[[0,0.5],[1,0.5]];portConstraint=eastwest;whiteSpace=wrap;html=1;fontSize=15;" vertex="1" parent="w5TSv6t7b7msW4aALVIM-87">
          <mxGeometry y="98" width="280" height="92" as="geometry" />
        </mxCell>
        <mxCell id="w5TSv6t7b7msW4aALVIM-92" style="edgeStyle=orthogonalEdgeStyle;rounded=0;orthogonalLoop=1;jettySize=auto;html=1;exitX=1;exitY=0.5;exitDx=0;exitDy=0;entryX=0;entryY=0.5;entryDx=0;entryDy=0;fontSize=15;" edge="1" parent="1" source="w5TSv6t7b7msW4aALVIM-88" target="w5TSv6t7b7msW4aALVIM-80">
          <mxGeometry relative="1" as="geometry" />
        </mxCell>
        <mxCell id="w5TSv6t7b7msW4aALVIM-93" value="USES" style="edgeLabel;html=1;align=center;verticalAlign=middle;resizable=0;points=[];fontSize=15;" vertex="1" connectable="0" parent="w5TSv6t7b7msW4aALVIM-92">
          <mxGeometry x="0.0465" y="2" relative="1" as="geometry">
            <mxPoint as="offset" />
          </mxGeometry>
        </mxCell>
        <mxCell id="w5TSv6t7b7msW4aALVIM-94" value="Validator&lt;div style=&quot;font-size: 15px;&quot;&gt;&lt;/div&gt;" style="swimlane;fontStyle=1;align=center;verticalAlign=top;childLayout=stackLayout;horizontal=1;startSize=43;horizontalStack=0;resizeParent=1;resizeParentMax=0;resizeLast=0;collapsible=1;marginBottom=0;whiteSpace=wrap;html=1;fontSize=15;" vertex="1" parent="1">
          <mxGeometry x="-780" y="600" width="280" height="190" as="geometry" />
        </mxCell>
        <mxCell id="w5TSv6t7b7msW4aALVIM-95" value="&lt;div style=&quot;font-size: 15px;&quot;&gt;&amp;nbsp;&lt;/div&gt;" style="text;strokeColor=none;fillColor=none;align=left;verticalAlign=top;spacingLeft=4;spacingRight=4;overflow=hidden;rotatable=0;points=[[0,0.5],[1,0.5]];portConstraint=eastwest;whiteSpace=wrap;html=1;fontSize=15;" vertex="1" parent="w5TSv6t7b7msW4aALVIM-94">
          <mxGeometry y="43" width="280" height="47" as="geometry" />
        </mxCell>
        <mxCell id="w5TSv6t7b7msW4aALVIM-96" value="" style="line;strokeWidth=1;fillColor=none;align=left;verticalAlign=middle;spacingTop=-1;spacingLeft=3;spacingRight=3;rotatable=0;labelPosition=right;points=[];portConstraint=eastwest;strokeColor=inherit;fontSize=15;" vertex="1" parent="w5TSv6t7b7msW4aALVIM-94">
          <mxGeometry y="90" width="280" height="8" as="geometry" />
        </mxCell>
        <mxCell id="w5TSv6t7b7msW4aALVIM-97" value="&lt;div style=&quot;font-size: 15px;&quot;&gt;&lt;div style=&quot;font-size: 15px;&quot;&gt;+ Validator()&lt;/div&gt;&lt;div style=&quot;font-size: 15px;&quot;&gt;&lt;br&gt;&lt;/div&gt;&lt;div style=&quot;font-size: 15px;&quot;&gt;+ SignInOptions (Bank): Account&lt;/div&gt;&lt;/div&gt;" style="text;strokeColor=none;fillColor=none;align=left;verticalAlign=top;spacingLeft=4;spacingRight=4;overflow=hidden;rotatable=0;points=[[0,0.5],[1,0.5]];portConstraint=eastwest;whiteSpace=wrap;html=1;fontSize=15;" vertex="1" parent="w5TSv6t7b7msW4aALVIM-94">
          <mxGeometry y="98" width="280" height="92" as="geometry" />
        </mxCell>
        <mxCell id="w5TSv6t7b7msW4aALVIM-98" style="edgeStyle=orthogonalEdgeStyle;rounded=0;orthogonalLoop=1;jettySize=auto;html=1;exitX=0.5;exitY=0;exitDx=0;exitDy=0;entryX=0.503;entryY=1.075;entryDx=0;entryDy=0;entryPerimeter=0;" edge="1" parent="1" source="w5TSv6t7b7msW4aALVIM-87" target="w5TSv6t7b7msW4aALVIM-97">
          <mxGeometry relative="1" as="geometry">
            <Array as="points">
              <mxPoint x="-630" y="955" />
              <mxPoint x="-639" y="955" />
            </Array>
          </mxGeometry>
        </mxCell>
        <mxCell id="w5TSv6t7b7msW4aALVIM-99" value="&lt;font style=&quot;font-size: 15px;&quot;&gt;BANK&lt;/font&gt;" style="edgeLabel;html=1;align=center;verticalAlign=middle;resizable=0;points=[];" vertex="1" connectable="0" parent="w5TSv6t7b7msW4aALVIM-98">
          <mxGeometry x="0.2985" y="-1" relative="1" as="geometry">
            <mxPoint as="offset" />
          </mxGeometry>
        </mxCell>
        <mxCell id="w5TSv6t7b7msW4aALVIM-100" value="AccountOptions&lt;div style=&quot;font-size: 15px;&quot;&gt;&lt;/div&gt;" style="swimlane;fontStyle=1;align=center;verticalAlign=top;childLayout=stackLayout;horizontal=1;startSize=43;horizontalStack=0;resizeParent=1;resizeParentMax=0;resizeLast=0;collapsible=1;marginBottom=0;whiteSpace=wrap;html=1;fontSize=15;" vertex="1" parent="1">
          <mxGeometry x="-780" y="130" width="280" height="190" as="geometry" />
        </mxCell>
        <mxCell id="w5TSv6t7b7msW4aALVIM-101" value="&amp;nbsp;" style="text;strokeColor=none;fillColor=none;align=left;verticalAlign=top;spacingLeft=4;spacingRight=4;overflow=hidden;rotatable=0;points=[[0,0.5],[1,0.5]];portConstraint=eastwest;whiteSpace=wrap;html=1;fontSize=15;" vertex="1" parent="w5TSv6t7b7msW4aALVIM-100">
          <mxGeometry y="43" width="280" height="47" as="geometry" />
        </mxCell>
        <mxCell id="w5TSv6t7b7msW4aALVIM-102" value="" style="line;strokeWidth=1;fillColor=none;align=left;verticalAlign=middle;spacingTop=-1;spacingLeft=3;spacingRight=3;rotatable=0;labelPosition=right;points=[];portConstraint=eastwest;strokeColor=inherit;fontSize=15;" vertex="1" parent="w5TSv6t7b7msW4aALVIM-100">
          <mxGeometry y="90" width="280" height="8" as="geometry" />
        </mxCell>
        <mxCell id="w5TSv6t7b7msW4aALVIM-103" value="&lt;div style=&quot;font-size: 15px;&quot;&gt;&lt;div style=&quot;font-size: 15px;&quot;&gt;+ AccountOptions()&lt;/div&gt;&lt;div style=&quot;font-size: 15px;&quot;&gt;&lt;br&gt;&lt;/div&gt;&lt;div style=&quot;font-size: 15px;&quot;&gt;+ AccountOptions (Account, List&amp;lt;Bank&amp;gt;): bool&lt;span style=&quot;white-space: pre;&quot;&gt;&#x9;&lt;/span&gt;&lt;/div&gt;&lt;/div&gt;" style="text;strokeColor=none;fillColor=none;align=left;verticalAlign=top;spacingLeft=4;spacingRight=4;overflow=hidden;rotatable=0;points=[[0,0.5],[1,0.5]];portConstraint=eastwest;whiteSpace=wrap;html=1;fontSize=15;" vertex="1" parent="w5TSv6t7b7msW4aALVIM-100">
          <mxGeometry y="98" width="280" height="92" as="geometry" />
        </mxCell>
        <mxCell id="w5TSv6t7b7msW4aALVIM-104" style="edgeStyle=orthogonalEdgeStyle;rounded=0;orthogonalLoop=1;jettySize=auto;html=1;exitX=0.5;exitY=0;exitDx=0;exitDy=0;entryX=0.479;entryY=1.061;entryDx=0;entryDy=0;entryPerimeter=0;" edge="1" parent="1" source="w5TSv6t7b7msW4aALVIM-94" target="w5TSv6t7b7msW4aALVIM-103">
          <mxGeometry relative="1" as="geometry">
            <Array as="points">
              <mxPoint x="-640" y="326" />
            </Array>
          </mxGeometry>
        </mxCell>
        <mxCell id="w5TSv6t7b7msW4aALVIM-105" value="&lt;font style=&quot;font-size: 15px;&quot;&gt;ACCOUNT&lt;/font&gt;" style="edgeLabel;html=1;align=center;verticalAlign=middle;resizable=0;points=[];" vertex="1" connectable="0" parent="w5TSv6t7b7msW4aALVIM-104">
          <mxGeometry x="0.3101" y="6" relative="1" as="geometry">
            <mxPoint as="offset" />
          </mxGeometry>
        </mxCell>
        <mxCell id="w5TSv6t7b7msW4aALVIM-111" style="edgeStyle=orthogonalEdgeStyle;rounded=0;orthogonalLoop=1;jettySize=auto;html=1;exitX=1;exitY=0.5;exitDx=0;exitDy=0;entryX=-0.004;entryY=0.418;entryDx=0;entryDy=0;entryPerimeter=0;" edge="1" parent="1" source="w5TSv6t7b7msW4aALVIM-95" target="w5TSv6t7b7msW4aALVIM-63">
          <mxGeometry relative="1" as="geometry" />
        </mxCell>
        <mxCell id="w5TSv6t7b7msW4aALVIM-112" value="&lt;font style=&quot;font-size: 15px;&quot;&gt;USES&lt;/font&gt;" style="edgeLabel;html=1;align=center;verticalAlign=middle;resizable=0;points=[];" vertex="1" connectable="0" parent="w5TSv6t7b7msW4aALVIM-111">
          <mxGeometry x="0.2586" y="5" relative="1" as="geometry">
            <mxPoint x="-28" y="3" as="offset" />
          </mxGeometry>
        </mxCell>
      </root>
    </mxGraphModel>
  </diagram>
</mxfile>
